# xmcd CD database file
#
# Track frame offsets:
#	150
#	22961
#	39132
#	61831
#	80067
#	101979
#	118302
#	140794
#	164088
#	187077
#	206319
#	232224
#
# Disc length: 3318 seconds
#
# Revision: 0
# Processed by: cddbd v1.5.1PL2 Copyright (c) Steve Scherf et al.
# Submitted via: CDex 1.51
#
DISCID=b10cf40c
DTITLE=千綿ヒデノリ - rule
DYEAR=2005
DGENRE=J-Pop
TTITLE0=友よ
TTITLE1=愛のカケラ
TTITLE2=rule
TTITLE3=あなたに逢いにいこう
TTITLE4=君と僕との間には
TTITLE5=What's going on?
TTITLE6=カラス(Album Mix)
TTITLE7=追憶のメロディー
TTITLE8=逢えない夜を越えて
TTITLE9=三日月の下で　〜thinkin' about you〜
TTITLE10=明日への光
TTITLE11=君がいた景色
EXTD=YEAR: 2005
EXTT0=
EXTT1=
EXTT2=
EXTT3=
EXTT4=
EXTT5=
EXTT6=
EXTT7=
EXTT8=
EXTT9=
EXTT10=
EXTT11=
PLAYORDER=
